<svg xmlns="http://www.w3.org/2000/svg" viewBox="0 0 900 800" font-family="'Courier New','Lucida Console',monospace">
  <defs>
    <filter id="glow">
      <feGaussianBlur stdDeviation="3" result="b" />
      <feMerge>
        <feMergeNode in="b" />
        <feMergeNode in="SourceGraphic" />
      </feMerge>
    </filter>
    <pattern id="scan" width="4" height="4" patternUnits="userSpaceOnUse">
      <rect width="4" height="2" fill="#fff" opacity="0.015" />
    </pattern>
  </defs>
  <rect width="900" height="800" fill="#0a0a0f" />
  <rect width="900" height="800" fill="url(#scan)" />
  <path d="M 24 8 L 8 8 L 8 36" stroke="#00ffa3" fill="none" stroke-width="1.5" opacity="0.5" />
  <path d="M 876 8 L 892 8 L 892 36" stroke="#00ffa3" fill="none" stroke-width="1.5" opacity="0.5" />
  <path d="M 8 764 L 8 792 L 24 792" stroke="#00ffa3" fill="none" stroke-width="1.5" opacity="0.5" />
  <path d="M 892 764 L 892 792 L 876 792" stroke="#00ffa3" fill="none" stroke-width="1.5" opacity="0.5" />
  <rect x="4" y="4" width="892" height="792" rx="2" fill="none" stroke="#2a2a3a" stroke-width="0.5" />
  <line x1="20" y1="44" x2="880" y2="44" stroke="#2a2a3a" stroke-width="0.5" />
  <text x="450" y="32" fill="#00ffa3" opacity="0.9" font-size="13" font-family="'Courier New','Lucida Console',monospace" text-anchor="middle">SI-PROTOCOLS // TOPOLOGY ANALYSIS</text>
  <line x1="450" y1="80" x2="265" y2="200" stroke="#2a2a3a" stroke-width="1" opacity="0.4" stroke-dasharray="4,4" />
  <line x1="450" y1="80" x2="635" y2="200" stroke="#2a2a3a" stroke-width="1" opacity="0.4" stroke-dasharray="4,4" />
  <line x1="265" y1="200" x2="126" y2="320" stroke="#2a2a3a" stroke-width="1" opacity="0.4" stroke-dasharray="4,4" />
  <line x1="265" y1="200" x2="219" y2="370" stroke="#2a2a3a" stroke-width="1" opacity="0.4" stroke-dasharray="4,4" />
  <line x1="265" y1="200" x2="311" y2="420" stroke="#2a2a3a" stroke-width="1" opacity="0.4" stroke-dasharray="4,4" />
  <line x1="265" y1="200" x2="404" y2="470" stroke="#2a2a3a" stroke-width="1" opacity="0.4" stroke-dasharray="4,4" />
  <line x1="265" y1="200" x2="496" y2="520" stroke="#2a2a3a" stroke-width="1" opacity="0.4" stroke-dasharray="4,4" />
  <line x1="265" y1="200" x2="589" y2="570" stroke="#2a2a3a" stroke-width="1" opacity="0.4" stroke-dasharray="4,4" />
  <line x1="265" y1="200" x2="681" y2="620" stroke="#2a2a3a" stroke-width="1" opacity="0.4" stroke-dasharray="4,4" />
  <line x1="265" y1="200" x2="774" y2="670" stroke="#2a2a3a" stroke-width="1" opacity="0.4" stroke-dasharray="4,4" />
  <line x1="635" y1="200" x2="126" y2="320" stroke="#2a2a3a" stroke-width="1" opacity="0.4" stroke-dasharray="4,4" />
  <line x1="635" y1="200" x2="219" y2="370" stroke="#2a2a3a" stroke-width="1" opacity="0.4" stroke-dasharray="4,4" />
  <line x1="635" y1="200" x2="311" y2="420" stroke="#2a2a3a" stroke-width="1" opacity="0.4" stroke-dasharray="4,4" />
  <line x1="635" y1="200" x2="404" y2="470" stroke="#2a2a3a" stroke-width="1" opacity="0.4" stroke-dasharray="4,4" />
  <line x1="635" y1="200" x2="496" y2="520" stroke="#2a2a3a" stroke-width="1" opacity="0.4" stroke-dasharray="4,4" />
  <line x1="635" y1="200" x2="589" y2="570" stroke="#2a2a3a" stroke-width="1" opacity="0.4" stroke-dasharray="4,4" />
  <line x1="635" y1="200" x2="681" y2="620" stroke="#2a2a3a" stroke-width="1" opacity="0.4" stroke-dasharray="4,4" />
  <line x1="635" y1="200" x2="774" y2="670" stroke="#2a2a3a" stroke-width="1" opacity="0.4" stroke-dasharray="4,4" />
  <line x1="126" y1="320" x2="219" y2="370" stroke="#00ffa3" stroke-width="1" opacity="0.6" />
  <line x1="126" y1="320" x2="311" y2="420" stroke="#00ffa3" stroke-width="1" opacity="0.6" />
  <line x1="126" y1="320" x2="404" y2="470" stroke="#00ffa3" stroke-width="1" opacity="0.6" />
  <line x1="126" y1="320" x2="496" y2="520" stroke="#00ffa3" stroke-width="1" opacity="0.6" />
  <line x1="126" y1="320" x2="589" y2="570" stroke="#00ffa3" stroke-width="1" opacity="0.6" />
  <line x1="126" y1="320" x2="681" y2="620" stroke="#00ffa3" stroke-width="1" opacity="0.6" />
  <line x1="219" y1="370" x2="311" y2="420" stroke="#00ffa3" stroke-width="1" opacity="0.6" />
  <line x1="219" y1="370" x2="404" y2="470" stroke="#00ffa3" stroke-width="1" opacity="0.6" />
  <line x1="219" y1="370" x2="496" y2="520" stroke="#00ffa3" stroke-width="1" opacity="0.6" />
  <line x1="219" y1="370" x2="589" y2="570" stroke="#00ffa3" stroke-width="1" opacity="0.6" />
  <line x1="219" y1="370" x2="681" y2="620" stroke="#00ffa3" stroke-width="1" opacity="0.6" />
  <line x1="311" y1="420" x2="404" y2="470" stroke="#00ffa3" stroke-width="1" opacity="0.6" />
  <line x1="311" y1="420" x2="496" y2="520" stroke="#00ffa3" stroke-width="1" opacity="0.6" />
  <line x1="311" y1="420" x2="589" y2="570" stroke="#00ffa3" stroke-width="1" opacity="0.6" />
  <line x1="311" y1="420" x2="681" y2="620" stroke="#00ffa3" stroke-width="1" opacity="0.6" />
  <line x1="404" y1="470" x2="496" y2="520" stroke="#00ffa3" stroke-width="1" opacity="0.6" />
  <line x1="404" y1="470" x2="589" y2="570" stroke="#00ffa3" stroke-width="1" opacity="0.6" />
  <line x1="404" y1="470" x2="681" y2="620" stroke="#00ffa3" stroke-width="1" opacity="0.6" />
  <line x1="496" y1="520" x2="589" y2="570" stroke="#00ffa3" stroke-width="1" opacity="0.6" />
  <line x1="496" y1="520" x2="681" y2="620" stroke="#00ffa3" stroke-width="1" opacity="0.6" />
  <line x1="589" y1="570" x2="681" y2="620" stroke="#00ffa3" stroke-width="1" opacity="0.6" />
  <line x1="126" y1="320" x2="774" y2="670" stroke="#ff4444" stroke-width="1" opacity="0.6" />
  <line x1="219" y1="370" x2="774" y2="670" stroke="#ff4444" stroke-width="1" opacity="0.6" />
  <line x1="311" y1="420" x2="774" y2="670" stroke="#ff4444" stroke-width="1" opacity="0.6" />
  <line x1="404" y1="470" x2="774" y2="670" stroke="#ff4444" stroke-width="1" opacity="0.6" />
  <line x1="496" y1="520" x2="774" y2="670" stroke="#ff4444" stroke-width="1" opacity="0.6" />
  <line x1="589" y1="570" x2="774" y2="670" stroke="#ff4444" stroke-width="1" opacity="0.6" />
  <line x1="681" y1="620" x2="774" y2="670" stroke="#ff4444" stroke-width="1" opacity="0.6" />
  <line x1="126" y1="320" x2="219" y2="370" stroke="#ffaa00" stroke-width="1" opacity="0.5" />
  <line x1="311" y1="420" x2="404" y2="470" stroke="#ffaa00" stroke-width="1" opacity="0.5" />
  <circle cx="126" cy="320" r="6" fill="#ff4444" opacity="0.8" filter="url(#glow)" />
  <text x="140" y="324" fill="#8888a0" opacity="0.7" font-size="8" font-family="'Courier New','Lucida Console',monospace">The ancient and hidden cosmic ...</text>
  <circle cx="219" cy="370" r="6" fill="#ff4444" opacity="0.8" filter="url(#glow)" />
  <text x="233" y="374" fill="#8888a0" opacity="0.7" font-size="8" font-family="'Courier New','Lucida Console',monospace">The ascended masters say that ...</text>
  <circle cx="311" cy="420" r="6" fill="#ff4444" opacity="0.8" filter="url(#glow)" />
  <text x="325" y="424" fill="#8888a0" opacity="0.7" font-size="8" font-family="'Courier New','Lucida Console',monospace">The galactic federation confir...</text>
  <circle cx="404" cy="470" r="6" fill="#ff4444" opacity="0.8" filter="url(#glow)" />
  <text x="418" y="474" fill="#8888a0" opacity="0.7" font-size="8" font-family="'Courier New','Lucida Console',monospace">You must act now — the window ...</text>
  <circle cx="496" cy="520" r="6" fill="#ff4444" opacity="0.8" filter="url(#glow)" />
  <text x="510" y="524" fill="#8888a0" opacity="0.7" font-size="8" font-family="'Courier New','Lucida Console',monospace">Scientists say that quantum vi...</text>
  <circle cx="589" cy="570" r="6" fill="#ff4444" opacity="0.8" filter="url(#glow)" />
  <text x="603" y="574" fill="#8888a0" opacity="0.7" font-size="8" font-family="'Courier New','Lucida Console',monospace">Experts agree that DNA activat...</text>
  <circle cx="681" cy="620" r="6" fill="#ff4444" opacity="0.8" filter="url(#glow)" />
  <text x="695" y="624" fill="#8888a0" opacity="0.7" font-size="8" font-family="'Courier New','Lucida Console',monospace">Studies show that the frequenc...</text>
  <circle cx="774" cy="670" r="6" fill="#00ffa3" opacity="0.8" filter="url(#glow)" />
  <text x="788" y="674" fill="#8888a0" opacity="0.7" font-size="8" font-family="'Courier New','Lucida Console',monospace">Published in the Journal of Co...</text>
  <circle cx="265" cy="200" r="10" fill="#ff4444" opacity="0.8" filter="url(#glow)" />
  <text x="265" y="184" fill="#e0e0e8" opacity="0.8" font-size="10" font-family="'Courier New','Lucida Console',monospace" text-anchor="middle">pseudo group (7)</text>
  <circle cx="635" cy="200" r="10" fill="#00ffa3" opacity="0.8" filter="url(#glow)" />
  <text x="635" y="184" fill="#e0e0e8" opacity="0.8" font-size="10" font-family="'Courier New','Lucida Console',monospace" text-anchor="middle">true group (1)</text>
  <circle cx="450" cy="80" r="16" fill="#ff4444" opacity="0.8" filter="url(#glow)" />
  <text x="450" y="58" fill="#e0e0e8" opacity="0.8" font-size="10" font-family="'Courier New','Lucida Console',monospace" text-anchor="middle">text topology (8 vars)</text>
  <text x="24" y="720" fill="#e0e0e8" opacity="0.7" font-size="9" font-family="'Courier New','Lucida Console',monospace">LEGEND</text>
  <circle cx="32" cy="733" r="4" fill="#ff4444" opacity="0.8" />
  <text x="44" y="736" fill="#8888a0" opacity="0.7" font-size="8" font-family="'Courier New','Lucida Console',monospace">Pseudo-variable</text>
  <circle cx="32" cy="749" r="4" fill="#00ffa3" opacity="0.8" />
  <text x="44" y="752" fill="#8888a0" opacity="0.7" font-size="8" font-family="'Courier New','Lucida Console',monospace">True-variable</text>
  <circle cx="32" cy="765" r="4" fill="#ffaa00" opacity="0.8" />
  <text x="44" y="768" fill="#8888a0" opacity="0.7" font-size="8" font-family="'Courier New','Lucida Console',monospace">Indeterminate</text>
  <text x="740" y="720" fill="#e0e0e8" opacity="0.7" font-size="9" font-family="'Courier New','Lucida Console',monospace">STATISTICS</text>
  <text x="740" y="736" fill="#8888a0" opacity="0.7" font-size="8" font-family="'Courier New','Lucida Console',monospace">Variables: 8</text>
  <text x="740" y="750" fill="#8888a0" opacity="0.7" font-size="8" font-family="'Courier New','Lucida Console',monospace">Pseudo: 7</text>
  <text x="740" y="764" fill="#8888a0" opacity="0.7" font-size="8" font-family="'Courier New','Lucida Console',monospace">True: 1</text>
  <text x="740" y="778" fill="#8888a0" opacity="0.7" font-size="8" font-family="'Courier New','Lucida Console',monospace">Indeterminate: 0</text>
</svg>
